HIERARCHY
ROOT Hips
{
 OFFSET 0.000000 0.000000 0.000000
 CHANNELS 6 Xposition Yposition Zposition Yrotation Xrotation Zrotation
 JOINT Chest
 {
  OFFSET 0.000000 9.581000 -0.001100
  CHANNELS 3 Yrotation Xrotation Zrotation
  JOINT Chest2
  {
   OFFSET 0.000000 9.561100 0.002200
   CHANNELS 3 Yrotation Xrotation Zrotation
   JOINT Chest3
   {
    OFFSET 0.000000 9.521100 0.000000
    CHANNELS 3 Yrotation Xrotation Zrotation
    JOINT Chest4
    {
     OFFSET 0.000000 9.511400 0.000000
     CHANNELS 3 Yrotation Xrotation Zrotation
     JOINT Neck
     {
      OFFSET 0.000000 14.375100 0.000000
      CHANNELS 3 Yrotation Xrotation Zrotation
      JOINT Head
      {
       OFFSET 0.000000 8.901200 0.004600
       CHANNELS 3 Yrotation Xrotation Zrotation
       End Site
       {
        OFFSET 0.000000 16.962200 0.002400
       }
      }
     }
     JOINT RightCollar
     {
      OFFSET -2.920100 9.518800 0.000000
      CHANNELS 3 Yrotation Xrotation Zrotation
      JOINT RightShoulder
      {
       OFFSET -13.664500 0.000000 0.000000
       CHANNELS 3 Yrotation Xrotation Zrotation
       JOINT RightElbow
       {
        OFFSET 0.000000 -29.999200 0.000000
        CHANNELS 3 Yrotation Xrotation Zrotation
        JOINT RightWrist
        {
         OFFSET 0.000000 -24.253600 0.000000
         CHANNELS 3 Yrotation Xrotation Zrotation
         End Site
         {
          OFFSET 0.000000 -17.918900 0.000000
         }
        }
       }
      }
     }
     JOINT LeftCollar
     {
      OFFSET 2.920100 9.518800 0.000000
      CHANNELS 3 Yrotation Xrotation Zrotation
      JOINT LeftShoulder
      {
       OFFSET 13.664500 0.000000 0.000000
       CHANNELS 3 Yrotation Xrotation Zrotation
       JOINT LeftElbow
       {
        OFFSET 0.000000 -29.999200 0.000000
        CHANNELS 3 Yrotation Xrotation Zrotation
        JOINT LeftWrist
        {
         OFFSET 0.000000 -24.253600 0.000000
         CHANNELS 3 Yrotation Xrotation Zrotation
         End Site
         {
          OFFSET 0.000000 -17.918900 0.000000
         }
        }
       }
      }
     }
    }
   }
  }
 }
 JOINT RightHip
 {
  OFFSET -7.797300 0.005300 0.000500
  CHANNELS 3 Yrotation Xrotation Zrotation
  JOINT RightKnee
  {
   OFFSET 0.000000 -40.663400 -0.000500
   CHANNELS 3 Yrotation Xrotation Zrotation
   JOINT RightAnkle
   {
    OFFSET 0.000000 -39.523700 -0.000900
    CHANNELS 3 Yrotation Xrotation Zrotation
    JOINT RightToe
    {
     OFFSET 0.000000 -6.418000 14.485300
     CHANNELS 3 Yrotation Xrotation Zrotation
     End Site
     {
      OFFSET 0.000000 -1.465200 6.326400
     }
    }
   }
  }
 }
 JOINT LeftHip
 {
  OFFSET 7.797300 0.005300 0.000500
  CHANNELS 3 Yrotation Xrotation Zrotation
  JOINT LeftKnee
  {
   OFFSET 0.000000 -40.663400 -0.000500
   CHANNELS 3 Yrotation Xrotation Zrotation
   JOINT LeftAnkle
   {
    OFFSET 0.000000 -39.523700 -0.000900
    CHANNELS 3 Yrotation Xrotation Zrotation
    JOINT LeftToe
    {
     OFFSET 0.000000 -6.418000 14.485300
     CHANNELS 3 Yrotation Xrotation Zrotation
     End Site
     {
      OFFSET 0.000000 -1.465200 6.326400
     }
    }
   }
  }
 }
}
MOTION
Frames: 11
Frame Time: 0.008333
0.000000 86.422400 0.000000 0.000000 -5.767877 0.000000 0.000000 11.653817 0.000000 0.000000 -5.885947 0.000000 0.000000 -0.000000 0.000000 0.000000 -0.000000 0.000000 0.000000 12.528835 0.000000 0.000000 0.711642 0.000000 0.000000 -0.000000 0.000000 0.000000 0.000000 -90.000000 0.000000 -2.309062 0.000000 0.000000 2.309062 0.000000 0.000000 -0.000000 0.000000 0.000000 -0.000000 90.000000 0.000000 -2.309062 0.000000 0.000000 2.309062 0.000000 0.000000 8.520406 0.000000 0.000000 1.905762 0.000000 -0.000000 -4.658285 0.000000 0.000000 -0.000000 0.000000 0.000000 8.520406 0.000000 0.000000 1.905762 0.000000 -0.000000 -4.658285 0.000000 0.000000 -0.000000 0.000000
-13.397274 126.913686 32.427472 -160.372039 -50.699704 -3.158588 -4.098640 26.751534 -0.754445 -0.665944 4.593505 0.008357 -1.069335 7.287833 -0.019676 -3.278871 21.816391 -0.458973 3.246172 9.973094 2.504431 2.907820 -15.162654 1.935092 3.550888 3.294804 2.307388 5.964931 -14.557792 -14.090132 -79.419477 -63.990481 130.871244 19.409967 28.038493 25.991937 -10.424714 -2.337337 -1.114712 -12.827109 -20.653995 12.669140 44.700971 -22.792946 -120.617045 15.388619 -14.865963 -7.593392 -6.673943 -22.354894 -11.080614 -10.449487 78.574849 -11.862491 10.128343 -14.295750 3.958231 -0.002081 -0.002862 -0.000922 4.290414 6.004876 -1.668474 128.946265 64.998183 147.162966 10.874424 11.072123 3.411551 -0.014585 0.093802 -0.006472
-13.397535 126.914833 32.428774 -160.359868 -50.723675 -3.168058 -4.086290 26.760109 -0.737434 -0.641974 4.576362 0.023895 -1.101499 7.309561 -0.036283 -3.209198 21.788074 -0.411193 3.187906 10.143518 2.500143 2.840989 -14.983102 1.940776 3.539708 3.337297 2.335511 5.649281 -14.635472 -13.966258 -79.792561 -64.077970 130.975176 19.351589 27.993090 25.919745 -10.433798 -2.353352 -1.090238 -13.072396 -20.770550 12.728687 44.228260 -22.314924 -120.929505 15.445164 -14.672128 -8.008171 -6.677114 -22.329109 -11.091249 -10.431580 78.571613 -11.845134 10.153509 -14.285912 3.962272 -0.000351 -0.003563 -0.000155 4.294385 6.021386 -1.663011 128.937998 64.998421 147.160353 10.882441 11.099245 3.377588 -0.014239 0.097326 -0.006318
-13.399462 126.911763 32.434336 -160.308985 -50.716272 -3.189827 -4.108360 26.738569 -0.736863 -0.613194 4.561379 0.038756 -1.102865 7.302882 -0.027488 -3.174667 21.788780 -0.384031 3.122097 10.315494 2.495171 2.766430 -14.802319 1.947429 3.519480 3.374640 2.360164 5.337098 -14.711999 -13.831183 -80.181820 -64.175323 131.077330 19.273026 27.955658 25.799542 -10.456172 -2.371890 -1.068512 -13.352062 -20.877462 12.808450 43.826382 -21.929360 -121.207499 15.397025 -14.557582 -8.393969 -6.697678 -22.334855 -11.113491 -10.443010 78.570758 -11.855403 10.159933 -14.287994 3.964941 0.001582 -0.001403 0.000701 4.295953 6.004695 -1.678730 128.922361 64.996050 147.171443 10.783946 11.030296 3.662995 0.003534 0.012695 0.001566
-13.400165 126.911249 32.437476 -160.283951 -50.729908 -3.203349 -4.079707 26.725754 -0.702649 -0.608259 4.561145 0.044501 -1.050144 7.274727 0.005334 -3.200513 21.809546 -0.374705 3.051691 10.490098 2.488350 2.687585 -14.619162 1.953104 3.462991 3.409667 2.359959 5.067888 -14.788128 -13.672486 -80.607537 -64.282807 131.187601 19.199822 27.912131 25.664388 -10.486082 -2.390569 -1.051351 -13.662010 -20.970210 12.907365 43.546817 -21.704543 -121.424467 15.336662 -14.426403 -8.775714 -6.701498 -22.317551 -11.123473 -10.432023 78.565618 -11.847405 10.161840 -14.285128 3.974377 0.000120 -0.001623 0.000053 4.300820 6.010268 -1.680555 128.907364 64.995438 147.165778 10.741143 10.979902 3.806378 0.006899 -0.004118 0.003057
-13.400598 126.911182 32.440134 -160.263995 -50.747143 -3.215085 -4.045269 26.718734 -0.667132 -0.617799 4.566877 0.046574 -1.018732 7.257795 0.028732 -3.236608 21.827761 -0.383318 3.020986 10.653627 2.493532 2.609940 -14.432854 1.954498 3.452429 3.428059 2.367670 4.819384 -14.865227 -13.512870 -81.087790 -64.404588 131.321829 19.136373 27.864310 25.528115 -10.482227 -2.422766 -1.022154 -13.994929 -21.042513 13.019375 43.393404 -21.622973 -121.573264 15.241971 -14.240234 -9.166829 -6.696085 -22.297353 -11.134632 -10.434826 78.562796 -11.841371 10.161094 -14.279488 3.975459 0.000928 -0.002637 0.000411 4.308851 6.015226 -1.679411 128.891589 64.993517 147.159011 10.743138 10.984769 3.824994 0.005522 -0.002010 0.002447
-13.401475 126.910607 32.443240 -160.235164 -50.759837 -3.229661 -4.022622 26.710450 -0.631821 -0.648005 4.582328 0.028915 -0.984068 7.239201 0.057881 -3.199154 21.818247 -0.340378 2.930510 10.843631 2.471875 2.535201 -14.243084 1.951560 3.464628 3.467175 2.382157 4.527321 -14.946232 -13.386352 -81.623736 -64.540537 131.489851 19.082882 27.820326 25.395720 -10.535675 -2.441305 -1.022868 -14.343940 -21.094323 13.136528 43.329606 -21.634554 -121.667893 15.079968 -13.985244 -9.557790 -6.693058 -22.281324 -11.148358 -10.440234 78.559370 -11.835184 10.148530 -14.271822 3.968052 0.001203 -0.002579 0.000533 4.304314 6.020962 -1.685448 128.881519 64.989783 147.148842 10.716034 10.943285 3.935844 0.007153 -0.012128 0.003169
-13.402085 126.909678 32.446432 -160.214542 -50.769322 -3.238447 -4.001084 26.699910 -0.598076 -0.646021 4.580632 0.033928 -0.979837 7.238220 0.064706 -3.168330 21.810688 -0.299191 2.842269 11.038342 2.447956 2.459055 -14.047394 1.948155 3.423276 3.500713 2.365231 4.300999 -15.031172 -13.234846 -82.202404 -64.688334 131.690662 19.044498 27.786896 25.271636 -10.595080 -2.451775 -1.033872 -14.698333 -21.135225 13.264282 43.308940 -21.701540 -121.726155 14.854087 -13.651333 -9.940121 -6.655982 -22.265122 -11.165304 -10.480640 78.555361 -11.848152 10.134031 -14.266112 3.979991 0.002096 -0.003736 0.000929 4.295360 6.029605 -1.692931 128.876201 64.993064 147.133921 10.685224 10.896274 4.065590 0.009150 -0.026922 0.004052
-13.402836 126.909763 32.448661 -160.187087 -50.785609 -3.252950 -3.984974 26.696558 -0.566745 -0.600247 4.564861 0.067341 -1.018010 7.257499 0.044841 -3.154803 21.810794 -0.275278 2.767785 11.231571 2.435013 2.378369 -13.846981 1.948009 3.392143 3.517375 2.361482 4.082580 -15.128381 -13.083076 -82.809442 -64.850484 131.922966 19.019857 27.772647 25.158654 -10.640796 -2.484017 -1.013066 -15.039327 -21.156519 13.362923 43.293022 -21.790121 -121.750709 14.590764 -13.243287 -10.330696 -6.650421 -22.245710 -11.176973 -10.460370 78.555131 -11.827246 10.132627 -14.263984 3.990527 0.004400 -0.005034 0.001949 4.299287 6.035368 -1.691448 128.873363 64.991397 147.137988 10.711282 10.928700 4.012209 0.008096 -0.019577 0.003586
-13.404286 126.911371 32.449662 -160.163147 -50.813156 -3.262760 -3.959261 26.707657 -0.532962 -0.620355 4.576246 0.054464 -0.997209 7.278256 0.058640 -3.141768 21.821528 -0.255498 2.694925 11.414737 2.425062 2.299305 -13.657481 1.950973 3.365874 3.489022 2.362123 3.861069 -15.240180 -12.928607 -83.442682 -65.026406 132.195324 19.008315 27.779425 25.059272 -10.679228 -2.564614 -0.962184 -15.352413 -21.168013 13.431379 43.257276 -21.877766 -121.734293 14.321642 -12.793785 -10.746596 -6.653203 -22.215902 -11.181222 -10.403694 78.549885 -11.797723 10.111195 -14.258244 4.015018 -0.002508 -0.006741 -0.001111 4.307805 6.051599 -1.689620 128.877027 64.987767 147.148173 10.805774 11.036958 3.767357 -0.000435 0.016981 -0.000193
-13.405531 126.911650 32.451598 -160.146070 -50.830106 -3.266329 -3.904424 26.763916 -0.484194 -0.645884 4.587473 0.046067 -1.007301 7.303613 0.058491 -3.130295 21.852689 -0.240922 2.628793 11.568506 2.416875 2.227913 -13.498775 1.954781 3.338251 3.379928 2.357617 3.649155 -15.366947 -12.771732 -84.111745 -65.211508 132.518805 19.008119 27.798982 24.973710 -10.712360 -2.706662 -0.899023 -15.626420 -21.195809 13.501965 43.189887 -21.953566 -121.680776 14.072165 -12.361497 -11.157924 -6.630998 -22.194952 -11.190237 -10.432873 78.549082 -11.822815 10.080789 -14.255458 4.026907 -0.003737 -0.007272 -0.001656 4.343946 6.046974 -1.683086 128.866956 64.986387 147.157951 10.876403 11.125424 3.623780 -0.009908 0.030712 -0.004392
